<svg width="150" height="150" viewBox="0 0 150 150" xmlns="http://www.w3.org/2000/svg">
  <!-- Roblox Theme - Red -->
  <circle cx="75" cy="75" r="75" fill="#E3000B"/>
  
  <!-- Robot/Blocky Head -->
  <rect x="45" y="45" width="60" height="60" fill="#FFC107" rx="5"/>
  
  <!-- Face Plate -->
  <rect x="50" y="55" width="50" height="35" fill="#FFE082" rx="3"/>
  
  <!-- Eyes (Robotic) -->
  <circle cx="62" cy="70" r="6" fill="#000"/>
  <circle cx="88" cy="70" r="6" fill="#000"/>
  <circle cx="64" cy="68" r="2" fill="#00BCD4"/>
  <circle cx="90" cy="68" r="2" fill="#00BCD4"/>
  
  <!-- Robot Mouth -->
  <rect x="60" y="85" width="30" height="3" fill="#000" rx="1"/>
  
  <!-- Antenna -->
  <line x1="75" y1="45" x2="75" y2="30" stroke="#FFD54F" stroke-width="3"/>
  <circle cx="75" cy="28" r="5" fill="#FF5722"/>
  
  <!-- Body -->
  <rect x="40" y="105" width="70" height="45" fill="#2196F3" rx="5"/>
  
  <!-- Controller/Game Pad -->
  <rect x="48" y="115" width="25" height="20" fill="#37474F" rx="3"/>
  <circle cx="56" cy="123" r="3" fill="#4CAF50"/>
  <circle cx="64" cy="123" r="3" fill="#F44336"/>
  <rect x="77" y="120" width="8" height="3" fill="#37474F" rx="1"/>
  <rect x="87" y="120" width="8" height="3" fill="#37474F" rx="1"/>
  
  <!-- Building Blocks -->
  <rect x="110" y="115" width="12" height="12" fill="#FFD54F"/>
  <rect x="110" y="130" width="12" height="12" fill="#4CAF50"/>
  <rect x="124" y="122" width="12" height="12" fill="#E91E63"/>
</svg>
