<svg width="200" height="200" viewBox="0 0 200 200" xmlns="http://www.w3.org/2000/svg">
  <!-- Background Circle -->
  <circle cx="100" cy="100" r="100" fill="#667eea"/>
  
  <!-- Face -->
  <circle cx="100" cy="90" r="45" fill="#ffd1b3"/>
  
  <!-- Hair -->
  <ellipse cx="100" cy="60" rx="48" ry="35" fill="#3d2817"/>
  
  <!-- Eyes -->
  <circle cx="88" cy="85" r="5" fill="#2c2c2c"/>
  <circle cx="112" cy="85" r="5" fill="#2c2c2c"/>
  <circle cx="90" cy="83" r="2" fill="white"/>
  <circle cx="114" cy="83" r="2" fill="white"/>
  
  <!-- Smile -->
  <path d="M 85 100 Q 100 110 115 100" stroke="#2c2c2c" stroke-width="2" fill="none" stroke-linecap="round"/>
  
  <!-- Body/Shirt -->
  <rect x="55" y="130" width="90" height="70" fill="#4facfe" rx="10"/>
  
  <!-- Laptop -->
  <rect x="65" y="145" width="70" height="45" fill="#34495e" rx="3"/>
  <rect x="68" y="148" width="64" height="35" fill="#52d1c9" rx="2"/>
  
  <!-- Code Lines on Screen -->
  <line x1="73" y1="155" x2="95" y2="155" stroke="#ffffff" stroke-width="2"/>
  <line x1="73" y1="162" x2="120" y2="162" stroke="#ffffff" stroke-width="2"/>
  <line x1="73" y1="169" x2="105" y2="169" stroke="#ffffff" stroke-width="2"/>
  <circle cx="128" cy="155" r="2" fill="#ffffff"/>
  <circle cx="128" cy="162" r="2" fill="#ffffff"/>
  
  <!-- Glasses -->
  <rect x="82" y="82" width="14" height="10" fill="none" stroke="#2c2c2c" stroke-width="1.5" rx="2"/>
  <rect x="104" y="82" width="14" height="10" fill="none" stroke="#2c2c2c" stroke-width="1.5" rx="2"/>
  <line x1="96" y1="87" x2="104" y2="87" stroke="#2c2c2c" stroke-width="1.5"/>
</svg>
