<svg width="120" height="120" viewBox="0 0 120 120" xmlns="http://www.w3.org/2000/svg">
  <!-- Young Student Boy 3 -->
  <circle cx="60" cy="60" r="60" fill="#4CAF50"/>
  <circle cx="60" cy="55" r="28" fill="#ffc8a0"/>
  
  <!-- Hair (Spiky) -->
  <polygon points="45,35 48,25 52,35 55,28 60,35 65,28 68,35 72,25 75,35" fill="#3d2817"/>
  <ellipse cx="60" cy="38" rx="28" ry="16" fill="#3d2817"/>
  
  <!-- Eyes (Excited) -->
  <circle cx="52" cy="53" r="4" fill="#000"/>
  <circle cx="68" cy="53" r="4" fill="#000"/>
  <circle cx="54" cy="51" r="2" fill="#fff"/>
  <circle cx="70" cy="51" r="2" fill="#fff"/>
  
  <!-- Big Happy Smile -->
  <path d="M 45 62 Q 60 75 75 62" stroke="#000" stroke-width="1.5" fill="none"/>
  
  <!-- Body -->
  <rect x="32" y="80" width="56" height="40" fill="#81C784" rx="8"/>
  
  <!-- Trophy/Achievement -->
  <path d="M 70 90 L 70 95 L 75 100 L 80 95 L 80 90 Z" fill="#FFD700"/>
  <rect x="72" y="85" width="6" height="5" fill="#FFD700"/>
  <text x="68" y="96" font-size="10" fill="#000">🏆</text>
</svg>
