<svg width="120" height="120" viewBox="0 0 120 120" xmlns="http://www.w3.org/2000/svg">
  <!-- Young Student Girl -->
  <circle cx="60" cy="60" r="60" fill="#f093fb"/>
  <circle cx="60" cy="55" r="28" fill="#ffd9b3"/>
  
  <!-- Hair (Ponytail) -->
  <ellipse cx="60" cy="38" rx="32" ry="22" fill="#8b4513"/>
  <circle cx="40" cy="45" r="10" fill="#8b4513"/>
  <circle cx="80" cy="45" r="10" fill="#8b4513"/>
  <ellipse cx="85" cy="42" rx="6" ry="14" fill="#8b4513"/>
  
  <!-- Eyes -->
  <circle cx="52" cy="53" r="3" fill="#000"/>
  <circle cx="68" cy="53" r="3" fill="#000"/>
  <circle cx="54" cy="51" r="1.5" fill="#fff"/>
  <circle cx="70" cy="51" r="1.5" fill="#fff"/>
  
  <!-- Smile -->
  <path d="M 48 62 Q 60 70 72 62" stroke="#000" stroke-width="1.5" fill="none"/>
  
  <!-- Body -->
  <rect x="32" y="80" width="56" height="40" fill="#a6c1ee" rx="8"/>
  
  <!-- Bow -->
  <polygon points="35,42 30,45 35,48" fill="#FF69B4"/>
  <polygon points="45,42 50,45 45,48" fill="#FF69B4"/>
  <circle cx="40" cy="45" r="3" fill="#FF1493"/>
</svg>
