<svg width="120" height="120" viewBox="0 0 120 120" xmlns="http://www.w3.org/2000/svg">
  <!-- Parent Man 2 -->
  <circle cx="60" cy="60" r="60" fill="#5c6bc0"/>
  <circle cx="60" cy="58" r="28" fill="#f4d9b3"/>
  
  <!-- Hair (Professional) -->
  <ellipse cx="60" cy="36" rx="30" ry="20" fill="#2c1810"/>
  <rect x="35" y="35" width="50" height="8" fill="#2c1810"/>
  
  <!-- Glasses (Professional) -->
  <rect x="46" y="53" width="11" height="9" fill="none" stroke="#000" stroke-width="1.5" rx="2"/>
  <rect x="63" y="53" width="11" height="9" fill="none" stroke="#000" stroke-width="1.5" rx="2"/>
  <line x1="57" y1="57.5" x2="63" y2="57.5" stroke="#000" stroke-width="1.5"/>
  
  <!-- Eyes -->
  <circle cx="51.5" cy="57.5" r="2.5" fill="#000"/>
  <circle cx="68.5" cy="57.5" r="2.5" fill="#000"/>
  
  <!-- Friendly Smile -->
  <path d="M 48 66 Q 60 72 72 66" stroke="#000" stroke-width="1.5" fill="none"/>
  
  <!-- Body (Professional attire) -->
  <rect x="32" y="82" width="56" height="38" fill="#3949ab" rx="8"/>
  
  <!-- Shirt collar -->
  <polygon points="52,82 60,88 68,82" fill="#fff"/>
  
  <!-- Tie -->
  <polygon points="60,88 57,95 60,102 63,95" fill="#1976D2"/>
</svg>
