<svg width="22" height="18" viewBox="0 0 22 18" fill="none" xmlns="http://www.w3.org/2000/svg">
<path d="M10.7842 10.3008C10.2217 10.3008 9.69727 10.1455 9.21094 9.83496C8.72461 9.52441 8.33203 9.10547 8.0332 8.57812C7.73438 8.04492 7.58496 7.45312 7.58496 6.80273C7.58496 6.15234 7.73438 5.56934 8.0332 5.05371C8.33203 4.53223 8.72461 4.12207 9.21094 3.82324C9.69727 3.52441 10.2217 3.375 10.7842 3.375C11.3525 3.375 11.8799 3.52148 12.3662 3.81445C12.8525 4.10742 13.2451 4.51172 13.5439 5.02734C13.8428 5.53711 13.9922 6.12012 13.9922 6.77637C13.9922 7.43848 13.8428 8.03613 13.5439 8.56934C13.2451 9.09668 12.8525 9.51855 12.3662 9.83496C11.8799 10.1455 11.3525 10.3008 10.7842 10.3008ZM6.17871 17.1035C5.48145 17.1035 5.00098 17.0039 4.7373 16.8047C4.47949 16.6055 4.35059 16.3242 4.35059 15.9609C4.35059 15.4629 4.49707 14.9414 4.79004 14.3965C5.08887 13.8457 5.5166 13.333 6.07324 12.8584C6.63574 12.3779 7.3125 11.9883 8.10352 11.6895C8.90039 11.3848 9.79395 11.2324 10.7842 11.2324C11.7803 11.2324 12.6738 11.3848 13.4648 11.6895C14.2559 11.9883 14.9326 12.3779 15.4951 12.8584C16.0576 13.333 16.4854 13.8457 16.7783 14.3965C17.0771 14.9414 17.2266 15.4629 17.2266 15.9609C17.2266 16.3242 17.0947 16.6055 16.8311 16.8047C16.5674 17.0039 16.0869 17.1035 15.3896 17.1035H6.17871ZM0.84375 1.4502C0.673828 1.4502 0.530273 1.3916 0.413086 1.27441C0.295898 1.15137 0.237305 1.00488 0.237305 0.834961C0.237305 0.670898 0.295898 0.530273 0.413086 0.413086C0.530273 0.290039 0.673828 0.228516 0.84375 0.228516C1.00781 0.228516 1.14844 0.290039 1.26562 0.413086C1.38281 0.530273 1.44141 0.670898 1.44141 0.834961C1.44141 1.00488 1.38281 1.15137 1.26562 1.27441C1.14844 1.3916 1.00781 1.4502 0.84375 1.4502ZM3.67383 1.4502C3.50391 1.4502 3.36035 1.3916 3.24316 1.27441C3.12598 1.15137 3.06738 1.00488 3.06738 0.834961C3.06738 0.670898 3.12598 0.530273 3.24316 0.413086C3.36035 0.290039 3.50391 0.228516 3.67383 0.228516C3.83789 0.228516 3.97852 0.290039 4.0957 0.413086C4.21875 0.530273 4.28027 0.670898 4.28027 0.834961C4.28027 1.00488 4.21875 1.15137 4.0957 1.27441C3.97852 1.3916 3.83789 1.4502 3.67383 1.4502ZM6.50391 1.4502C6.33984 1.4502 6.19629 1.3916 6.07324 1.27441C5.95605 1.15137 5.89746 1.00488 5.89746 0.834961C5.89746 0.670898 5.95605 0.530273 6.07324 0.413086C6.19629 0.290039 6.33984 0.228516 6.50391 0.228516C6.67383 0.228516 6.81738 0.290039 6.93457 0.413086C7.05176 0.530273 7.11035 0.670898 7.11035 0.834961C7.11035 1.00488 7.05176 1.15137 6.93457 1.27441C6.81738 1.3916 6.67383 1.4502 6.50391 1.4502ZM9.34277 1.66992C9.11426 1.66992 8.91797 1.58789 8.75391 1.42383C8.58984 1.25977 8.50781 1.06348 8.50781 0.834961C8.50781 0.606445 8.58984 0.410156 8.75391 0.246094C8.91797 0.0820312 9.11426 0 9.34277 0C9.57129 0 9.76758 0.0820312 9.93164 0.246094C10.0957 0.410156 10.1777 0.606445 10.1777 0.834961C10.1777 1.06348 10.0957 1.25977 9.93164 1.42383C9.76758 1.58789 9.57129 1.66992 9.34277 1.66992ZM12.1729 1.66992C11.9443 1.66992 11.748 1.58789 11.584 1.42383C11.4199 1.25977 11.3379 1.06348 11.3379 0.834961C11.3379 0.606445 11.4199 0.410156 11.584 0.246094C11.748 0.0820312 11.9443 0 12.1729 0C12.4014 0 12.5977 0.0820312 12.7617 0.246094C12.9258 0.410156 13.0078 0.606445 13.0078 0.834961C13.0078 1.06348 12.9258 1.25977 12.7617 1.42383C12.5977 1.58789 12.4014 1.66992 12.1729 1.66992ZM15.0205 1.4502C14.8506 1.4502 14.707 1.3916 14.5898 1.27441C14.4727 1.15137 14.4141 1.00488 14.4141 0.834961C14.4141 0.670898 14.4727 0.530273 14.5898 0.413086C14.707 0.290039 14.8506 0.228516 15.0205 0.228516C15.1846 0.228516 15.3252 0.290039 15.4424 0.413086C15.5654 0.530273 15.627 0.670898 15.627 0.834961C15.627 1.00488 15.5654 1.15137 15.4424 1.27441C15.3252 1.3916 15.1846 1.4502 15.0205 1.4502ZM17.8594 1.4502C17.6895 1.4502 17.543 1.3916 17.4199 1.27441C17.3027 1.15137 17.2441 1.00488 17.2441 0.834961C17.2441 0.670898 17.3027 0.530273 17.4199 0.413086C17.543 0.290039 17.6895 0.228516 17.8594 0.228516C18.0234 0.228516 18.1641 0.290039 18.2812 0.413086C18.4043 0.530273 18.4658 0.670898 18.4658 0.834961C18.4658 1.00488 18.4043 1.15137 18.2812 1.27441C18.1641 1.3916 18.0234 1.4502 17.8594 1.4502ZM20.6895 1.4502C20.5254 1.4502 20.3818 1.3916 20.2588 1.27441C20.1416 1.15137 20.083 1.00488 20.083 0.834961C20.083 0.670898 20.1416 0.530273 20.2588 0.413086C20.3818 0.290039 20.5254 0.228516 20.6895 0.228516C20.8535 0.228516 20.9941 0.290039 21.1113 0.413086C21.2344 0.530273 21.2959 0.670898 21.2959 0.834961C21.2959 1.00488 21.2344 1.15137 21.1113 1.27441C20.9941 1.3916 20.8535 1.4502 20.6895 1.4502ZM0.84375 4.54395C0.673828 4.54395 0.530273 4.48535 0.413086 4.36816C0.295898 4.24512 0.237305 4.10156 0.237305 3.9375C0.237305 3.76758 0.295898 3.62402 0.413086 3.50684C0.530273 3.38965 0.673828 3.33105 0.84375 3.33105C1.00781 3.33105 1.14844 3.38965 1.26562 3.50684C1.38281 3.62402 1.44141 3.76758 1.44141 3.9375C1.44141 4.10156 1.38281 4.24512 1.26562 4.36816C1.14844 4.48535 1.00781 4.54395 0.84375 4.54395ZM3.67383 4.77246C3.43945 4.77246 3.24023 4.69043 3.07617 4.52637C2.91211 4.3623 2.83008 4.16602 2.83008 3.9375C2.83008 3.70898 2.91211 3.5127 3.07617 3.34863C3.24023 3.18457 3.43945 3.10254 3.67383 3.10254C3.90234 3.10254 4.09863 3.18457 4.2627 3.34863C4.42676 3.5127 4.50879 3.70898 4.50879 3.9375C4.50879 4.16602 4.42676 4.3623 4.2627 4.52637C4.09863 4.69043 3.90234 4.77246 3.67383 4.77246ZM6.50391 4.77246C6.27539 4.77246 6.0791 4.69043 5.91504 4.52637C5.75098 4.3623 5.66895 4.16602 5.66895 3.9375C5.66895 3.70898 5.75098 3.5127 5.91504 3.34863C6.0791 3.18457 6.27539 3.10254 6.50391 3.10254C6.70898 3.10254 6.8877 3.16992 7.04004 3.30469C7.19824 3.43945 7.29199 3.60352 7.32129 3.79688C7.08105 4.0957 6.89062 4.40332 6.75 4.71973C6.66797 4.75488 6.58594 4.77246 6.50391 4.77246ZM15.0205 4.77246C14.9385 4.77246 14.8711 4.76367 14.8184 4.74609C14.6602 4.39453 14.458 4.06348 14.2119 3.75293C14.2471 3.56543 14.3408 3.41016 14.4932 3.28711C14.6455 3.16406 14.8213 3.10254 15.0205 3.10254C15.2549 3.10254 15.4512 3.18457 15.6094 3.34863C15.7734 3.5127 15.8555 3.70898 15.8555 3.9375C15.8555 4.16602 15.7734 4.3623 15.6094 4.52637C15.4512 4.69043 15.2549 4.77246 15.0205 4.77246ZM17.8594 4.77246C17.625 4.77246 17.4258 4.69043 17.2617 4.52637C17.0977 4.3623 17.0156 4.16602 17.0156 3.9375C17.0156 3.70898 17.0977 3.5127 17.2617 3.34863C17.4258 3.18457 17.625 3.10254 17.8594 3.10254C18.0879 3.10254 18.2842 3.18457 18.4482 3.34863C18.6123 3.5127 18.6943 3.70898 18.6943 3.9375C18.6943 4.16602 18.6123 4.3623 18.4482 4.52637C18.2842 4.69043 18.0879 4.77246 17.8594 4.77246ZM20.6895 4.54395C20.5254 4.54395 20.3818 4.48535 20.2588 4.36816C20.1416 4.24512 20.083 4.10156 20.083 3.9375C20.083 3.76758 20.1416 3.62402 20.2588 3.50684C20.3818 3.38965 20.5254 3.33105 20.6895 3.33105C20.8535 3.33105 20.9941 3.38965 21.1113 3.50684C21.2344 3.62402 21.2959 3.76758 21.2959 3.9375C21.2959 4.10156 21.2344 4.24512 21.1113 4.36816C20.9941 4.48535 20.8535 4.54395 20.6895 4.54395ZM0.84375 7.875C0.609375 7.875 0.410156 7.79297 0.246094 7.62891C0.0820312 7.45898 0 7.25977 0 7.03125C0 6.80273 0.0820312 6.60645 0.246094 6.44238C0.410156 6.27832 0.609375 6.19629 0.84375 6.19629C1.06641 6.19629 1.25977 6.27832 1.42383 6.44238C1.58789 6.60645 1.66992 6.80273 1.66992 7.03125C1.66992 7.25977 1.58789 7.45898 1.42383 7.62891C1.25977 7.79297 1.06641 7.875 0.84375 7.875ZM3.67383 8.10352C3.38086 8.10352 3.12891 7.99805 2.91797 7.78711C2.71289 7.57617 2.61035 7.32422 2.61035 7.03125C2.61035 6.73828 2.71289 6.48926 2.91797 6.28418C3.12891 6.07324 3.38086 5.96777 3.67383 5.96777C3.96094 5.96777 4.20996 6.07324 4.4209 6.28418C4.63184 6.48926 4.7373 6.73828 4.7373 7.03125C4.7373 7.32422 4.63184 7.57617 4.4209 7.78711C4.20996 7.99805 3.96094 8.10352 3.67383 8.10352ZM5.44043 7.03125C5.44043 6.76172 5.52832 6.52734 5.7041 6.32812C5.88574 6.12891 6.10547 6.01172 6.36328 5.97656C6.33984 6.11133 6.32227 6.24609 6.31055 6.38086C6.29883 6.51562 6.29297 6.65625 6.29297 6.80273C6.29297 7.26562 6.34863 7.69922 6.45996 8.10352C6.18457 8.0918 5.94434 7.9834 5.73926 7.77832C5.54004 7.56738 5.44043 7.31836 5.44043 7.03125ZM16.0928 7.03125C16.0928 7.3125 15.9932 7.55859 15.7939 7.76953C15.5947 7.97461 15.3604 8.08594 15.0908 8.10352C15.2021 7.69336 15.2578 7.25684 15.2578 6.79395C15.2578 6.5127 15.2373 6.24316 15.1963 5.98535C15.4424 6.02637 15.6533 6.14648 15.8291 6.3457C16.0049 6.53906 16.0928 6.76758 16.0928 7.03125ZM17.8594 8.10352C17.5664 8.10352 17.3145 7.99805 17.1035 7.78711C16.8926 7.57617 16.7871 7.32422 16.7871 7.03125C16.7871 6.73828 16.8926 6.48926 17.1035 6.28418C17.3145 6.07324 17.5664 5.96777 17.8594 5.96777C18.1465 5.96777 18.3955 6.07324 18.6064 6.28418C18.8174 6.48926 18.9229 6.73828 18.9229 7.03125C18.9229 7.32422 18.8174 7.57617 18.6064 7.78711C18.3955 7.99805 18.1465 8.10352 17.8594 8.10352ZM20.6895 7.875C20.4609 7.875 20.2646 7.79297 20.1006 7.62891C19.9365 7.45898 19.8545 7.25977 19.8545 7.03125C19.8545 6.80273 19.9365 6.60645 20.1006 6.44238C20.2646 6.27832 20.4609 6.19629 20.6895 6.19629C20.918 6.19629 21.1143 6.27832 21.2783 6.44238C21.4424 6.60645 21.5244 6.80273 21.5244 7.03125C21.5244 7.25977 21.4424 7.45898 21.2783 7.62891C21.1143 7.79297 20.918 7.875 20.6895 7.875ZM0.84375 10.9688C0.609375 10.9688 0.410156 10.8867 0.246094 10.7227C0.0820312 10.5586 0 10.3623 0 10.1338C0 9.90527 0.0820312 9.70898 0.246094 9.54492C0.410156 9.38086 0.609375 9.29883 0.84375 9.29883C1.06641 9.29883 1.25977 9.38086 1.42383 9.54492C1.58789 9.70898 1.66992 9.90527 1.66992 10.1338C1.66992 10.3623 1.58789 10.5586 1.42383 10.7227C1.25977 10.8867 1.06641 10.9688 0.84375 10.9688ZM3.67383 11.1973C3.38086 11.1973 3.12891 11.0947 2.91797 10.8896C2.71289 10.6787 2.61035 10.4268 2.61035 10.1338C2.61035 9.84082 2.71289 9.58887 2.91797 9.37793C3.12891 9.16699 3.38086 9.06152 3.67383 9.06152C3.96094 9.06152 4.20996 9.16699 4.4209 9.37793C4.63184 9.58887 4.7373 9.84082 4.7373 10.1338C4.7373 10.4268 4.63184 10.6787 4.4209 10.8896C4.20996 11.0947 3.96094 11.1973 3.67383 11.1973ZM5.9502 11.0127C5.79785 10.9189 5.6748 10.7959 5.58105 10.6436C5.4873 10.4854 5.44043 10.3154 5.44043 10.1338C5.44043 9.8584 5.53711 9.62109 5.73047 9.42188C5.92969 9.22266 6.16699 9.12305 6.44238 9.12305C6.74121 9.12305 6.99023 9.2373 7.18945 9.46582C7.38867 9.68848 7.47363 9.95215 7.44434 10.2568C7.1748 10.3623 6.91406 10.4795 6.66211 10.6084C6.41602 10.7314 6.17871 10.8662 5.9502 11.0127ZM15.6006 10.9863C15.3662 10.8457 15.123 10.7139 14.8711 10.5908C14.6191 10.4619 14.3555 10.3477 14.0801 10.248C14.0508 9.94336 14.1357 9.67969 14.335 9.45703C14.5342 9.23438 14.7832 9.12305 15.082 9.12305C15.3574 9.12305 15.5947 9.22266 15.7939 9.42188C15.9932 9.62109 16.0928 9.8584 16.0928 10.1338C16.0928 10.3096 16.0459 10.4766 15.9521 10.6348C15.8584 10.7871 15.7412 10.9043 15.6006 10.9863ZM17.8594 11.1973C17.5664 11.1973 17.3145 11.0947 17.1035 10.8896C16.8926 10.6787 16.7871 10.4268 16.7871 10.1338C16.7871 9.84082 16.8926 9.58887 17.1035 9.37793C17.3145 9.16699 17.5664 9.06152 17.8594 9.06152C18.1465 9.06152 18.3955 9.16699 18.6064 9.37793C18.8174 9.58887 18.9229 9.84082 18.9229 10.1338C18.9229 10.4268 18.8174 10.6787 18.6064 10.8896C18.3955 11.0947 18.1465 11.1973 17.8594 11.1973ZM20.6895 10.9688C20.4609 10.9688 20.2646 10.8867 20.1006 10.7227C19.9365 10.5586 19.8545 10.3623 19.8545 10.1338C19.8545 9.90527 19.9365 9.70898 20.1006 9.54492C20.2646 9.38086 20.4609 9.29883 20.6895 9.29883C20.918 9.29883 21.1143 9.38086 21.2783 9.54492C21.4424 9.70898 21.5244 9.90527 21.5244 10.1338C21.5244 10.3623 21.4424 10.5586 21.2783 10.7227C21.1143 10.8867 20.918 10.9688 20.6895 10.9688ZM0.84375 13.834C0.673828 13.834 0.530273 13.7754 0.413086 13.6582C0.295898 13.541 0.237305 13.3975 0.237305 13.2275C0.237305 13.0635 0.295898 12.9229 0.413086 12.8057C0.530273 12.6826 0.673828 12.6211 0.84375 12.6211C1.00781 12.6211 1.14844 12.6826 1.26562 12.8057C1.38281 12.9229 1.44141 13.0635 1.44141 13.2275C1.44141 13.3975 1.38281 13.541 1.26562 13.6582C1.14844 13.7754 1.00781 13.834 0.84375 13.834ZM3.26074 13.9482C2.97363 13.79 2.83008 13.5498 2.83008 13.2275C2.83008 12.999 2.91211 12.8027 3.07617 12.6387C3.24023 12.4746 3.43945 12.3926 3.67383 12.3926C3.84961 12.3926 4.01074 12.4482 4.15723 12.5596C3.79395 12.9932 3.49512 13.4561 3.26074 13.9482ZM18.3076 13.9307C18.0674 13.4326 17.7656 12.9668 17.4023 12.5332C17.5371 12.4395 17.6895 12.3926 17.8594 12.3926C18.0879 12.3926 18.2842 12.4746 18.4482 12.6387C18.6123 12.8027 18.6943 12.999 18.6943 13.2275C18.6943 13.5264 18.5654 13.7607 18.3076 13.9307ZM20.6895 13.834C20.5254 13.834 20.3818 13.7754 20.2588 13.6582C20.1416 13.541 20.083 13.3975 20.083 13.2275C20.083 13.0635 20.1416 12.9229 20.2588 12.8057C20.3818 12.6826 20.5254 12.6211 20.6895 12.6211C20.8535 12.6211 20.9941 12.6826 21.1113 12.8057C21.2344 12.9229 21.2959 13.0635 21.2959 13.2275C21.2959 13.3975 21.2344 13.541 21.1113 13.6582C20.9941 13.7754 20.8535 13.834 20.6895 13.834ZM0.84375 16.9365C0.673828 16.9365 0.530273 16.875 0.413086 16.752C0.295898 16.6348 0.237305 16.4941 0.237305 16.3301C0.237305 16.166 0.295898 16.0225 0.413086 15.8994C0.530273 15.7822 0.673828 15.7236 0.84375 15.7236C1.00781 15.7236 1.14844 15.7822 1.26562 15.8994C1.38281 16.0225 1.44141 16.166 1.44141 16.3301C1.44141 16.4941 1.38281 16.6348 1.26562 16.752C1.14844 16.875 1.00781 16.9365 0.84375 16.9365ZM20.6895 16.9365C20.5254 16.9365 20.3818 16.875 20.2588 16.752C20.1416 16.6348 20.083 16.4941 20.083 16.3301C20.083 16.166 20.1416 16.0225 20.2588 15.8994C20.3818 15.7822 20.5254 15.7236 20.6895 15.7236C20.8535 15.7236 20.9941 15.7822 21.1113 15.8994C21.2344 16.0225 21.2959 16.166 21.2959 16.3301C21.2959 16.4941 21.2344 16.6348 21.1113 16.752C20.9941 16.875 20.8535 16.9365 20.6895 16.9365Z" fill="white"/>
</svg>
