<svg width="60" height="60" viewBox="0 0 60 60" fill="none" xmlns="http://www.w3.org/2000/svg">
<path fill-rule="evenodd" clip-rule="evenodd" d="M16.5 23C16.5 22.7239 16.7239 22.5 17 22.5H42.5C42.7761 22.5 43 22.7239 43 23C43 23.2761 42.7761 23.5 42.5 23.5H17C16.7239 23.5 16.5 23.2761 16.5 23Z" fill="#1C1C1C"/>
<path fill-rule="evenodd" clip-rule="evenodd" d="M16.5 30C16.5 29.7239 16.7239 29.5 17 29.5H42.5C42.7761 29.5 43 29.7239 43 30C43 30.2761 42.7761 30.5 42.5 30.5H17C16.7239 30.5 16.5 30.2761 16.5 30Z" fill="#1C1C1C"/>
<path fill-rule="evenodd" clip-rule="evenodd" d="M16.5 37C16.5 36.7239 16.7239 36.5 17 36.5H42.5C42.7761 36.5 43 36.7239 43 37C43 37.2761 42.7761 37.5 42.5 37.5H17C16.7239 37.5 16.5 37.2761 16.5 37Z" fill="#1C1C1C"/>
</svg>
