<svg width="41" height="32" viewBox="0 0 41 32" fill="none" xmlns="http://www.w3.org/2000/svg">
<path d="M39.4332 6.12423C40.6064 4.78041 40.4681 2.73997 39.1242 1.56679C37.7804 0.393605 35.74 0.531939 34.5668 1.87577L39.4332 6.12423ZM16.0476 28L13.7682 30.2885C14.4012 30.919 15.2672 31.2592 16.1601 31.228C17.0531 31.1969 17.8932 30.7973 18.4808 30.1242L16.0476 28ZM6.27943 13.7115C5.01554 12.4526 2.97042 12.4567 1.71153 13.7206C0.452633 14.9845 0.456683 17.0296 1.72057 18.2885L6.27943 13.7115ZM34.5668 1.87577L13.6144 25.8758L18.4808 30.1242L39.4332 6.12423L34.5668 1.87577ZM18.327 25.7115L6.27943 13.7115L1.72057 18.2885L13.7682 30.2885L18.327 25.7115Z" fill="#FD98FB"/>
</svg>
