<svg width="148" height="28" viewBox="0 0 148 28" fill="none" xmlns="http://www.w3.org/2000/svg">
<g clip-path="url(#clip0_16726_35949)">
<path d="M68.5924 13.756C68.5924 18.0743 68.5796 22.3926 68.6052 26.7107C68.6052 27.3424 68.4261 27.5229 67.8121 27.4971C66.6354 27.4584 65.4715 27.4713 64.2948 27.4971C63.847 27.5099 63.6808 27.3424 63.7063 26.9042C63.732 26.1952 63.7192 25.4861 63.7063 24.7773C63.7063 24.6097 63.5913 24.442 63.5401 24.2745C63.4123 24.3776 63.2459 24.455 63.1692 24.5839C61.4297 27.1619 58.846 28.0127 55.9682 27.9999C50.4426 27.9611 46.6822 24.4678 45.7229 19.3763C45.2113 16.6434 45.3903 13.9365 46.5799 11.3842C48.2426 7.81363 50.9926 5.76408 54.9448 5.40315C57.4646 5.18402 59.7669 5.72541 61.7878 7.29802C62.1587 7.58161 62.4657 7.95542 62.811 8.26479C62.939 8.38081 63.1052 8.47103 63.2587 8.57416C63.3099 8.38081 63.4378 8.18745 63.4378 7.9941C63.4506 5.63518 63.4506 3.26336 63.4506 0.904449C63.4506 0.0150221 63.4506 0.0150222 64.3076 0.0150222C65.497 0.0150222 66.6994 0.040794 67.8889 0.00212962C68.4644 -0.0236555 68.6052 0.182585 68.6052 0.736872C68.5796 5.08089 68.5924 9.41203 68.5924 13.756ZM63.5913 16.6822C63.5913 12.8409 60.8541 9.99209 57.1832 9.95342C53.6786 9.92764 50.596 12.5057 50.6217 16.6692C50.6472 20.8715 53.7553 23.3336 57.1192 23.3336C60.8158 23.3336 63.5785 20.4977 63.5913 16.6822Z" fill="#262626"/>
<path d="M147.423 13.819C147.423 18.0727 147.423 22.3266 147.423 26.5804C147.423 27.4827 147.423 27.4827 146.503 27.4827C145.441 27.4827 144.367 27.4569 143.305 27.4955C142.794 27.5085 142.563 27.3538 142.589 26.8124C142.627 26.1034 142.602 25.3945 142.589 24.6855C142.589 24.5437 142.474 24.4019 142.397 24.2473C142.282 24.3246 142.128 24.389 142.052 24.4922C140.555 26.7995 138.316 27.7148 135.72 27.9209C132.472 28.1788 129.606 27.2764 127.304 24.8918C125.679 23.216 124.823 21.1536 124.49 18.8719C124.119 16.3713 124.285 13.8964 125.347 11.5632C127.01 7.88949 129.772 5.73681 133.84 5.38877C136.078 5.19542 138.163 5.59502 140.043 6.85827C140.618 7.24498 141.105 7.78636 141.642 8.23752C141.795 8.36643 141.975 8.44377 142.154 8.54689C142.217 8.35354 142.333 8.16018 142.333 7.95394C142.359 7.02583 142.345 6.11063 142.345 5.18253C142.345 3.67437 142.359 2.1791 142.333 0.670933C142.32 0.168217 142.487 -0.0122525 142.999 0.000640018C144.239 0.0264251 145.466 0.0393176 146.708 0.000640018C147.27 -0.0122525 147.436 0.181109 147.436 0.735382C147.411 5.10519 147.423 9.4621 147.423 13.819ZM135.951 23.332C139.66 23.3449 142.499 20.4446 142.499 16.642C142.499 12.8651 139.673 9.96481 136.014 9.95192C132.305 9.95192 129.504 12.8007 129.491 16.5775C129.465 20.4446 132.228 23.332 135.951 23.332Z" fill="#262626"/>
<path d="M0.0127868 13.7434C0.0127868 9.42515 0.0255735 5.1069 0 0.788671C0 0.157043 0.191854 -0.023413 0.793017 0.00235883C1.98253 0.0410364 3.18484 0.0410364 4.37435 0.00235883C4.9883 -0.023413 5.18016 0.157043 5.16737 0.788671C5.1418 5.06824 5.15458 9.33492 5.15458 13.6144C5.15458 13.7821 5.1418 13.9625 5.15458 14.1301C5.18016 14.3363 5.24412 14.5297 5.29528 14.7231C5.46156 14.6199 5.6662 14.5426 5.80689 14.4008C7.82781 12.2223 9.87428 10.0568 11.8568 7.83965C13.5963 5.90611 13.5708 5.88032 16.1161 5.88032C17.2928 5.88032 18.4567 5.88032 19.6335 5.88032C19.787 5.88032 19.9404 5.95767 20.0939 5.99633C20.0044 6.11235 19.9277 6.24125 19.8253 6.34438C17.101 9.24468 14.3893 12.1579 11.6521 15.0453C11.2429 15.4707 11.2045 15.7414 11.601 16.2183C14.6323 19.8276 17.6254 23.4626 20.6311 27.0848C20.7078 27.175 20.759 27.2911 20.823 27.3941C20.7078 27.4199 20.58 27.4586 20.4648 27.4586C18.5079 27.4586 16.5382 27.4844 14.5812 27.4329C14.2743 27.4199 13.8777 27.1492 13.673 26.8785C11.1533 23.6559 8.65919 20.4205 6.15224 17.1851C5.90923 16.8758 5.60225 16.6437 5.32086 16.373C5.26969 16.7597 5.16737 17.1465 5.16737 17.5331C5.15458 20.5236 5.15458 23.5014 5.15458 26.4919C5.15458 27.4586 5.15458 27.4586 4.16971 27.4586C3.01856 27.4586 1.86742 27.4329 0.71627 27.4715C0.153481 27.523 0 27.3297 0 26.7626C0.0255735 22.4185 0.0127868 18.0874 0.0127868 13.7434Z" fill="#262626"/>
<path d="M42.965 16.7115C43.0033 22.7571 38.6163 27.462 32.5407 27.9004C29.8931 28.0937 27.399 27.6941 25.0966 26.3535C21.8351 24.4586 20.0699 21.5325 19.7374 17.7815C19.4431 14.4944 20.2618 11.5168 22.4874 9.01605C24.3036 6.97938 26.6315 5.87082 29.2663 5.47122C32.1442 5.03295 34.9453 5.381 37.4906 6.86337C40.9441 8.87425 42.7604 11.9422 42.9394 15.9638C42.9394 16.1959 42.9523 16.415 42.965 16.7115ZM24.8537 16.6085C24.8537 20.4497 27.5908 23.3114 31.2744 23.3242C34.9964 23.3372 37.836 20.4754 37.8616 16.6729C37.8872 12.8961 35.0349 9.96992 31.3256 9.95704C27.6292 9.95704 24.8537 12.8058 24.8537 16.6085Z" fill="#262626"/>
<path d="M99.591 19.9476C99.591 22.2033 99.5783 24.4592 99.6038 26.7149C99.6167 27.295 99.4503 27.5141 98.8492 27.4883C97.826 27.4367 96.8026 27.4367 95.7794 27.4883C95.1655 27.5141 94.9993 27.282 95.0376 26.7021C95.076 26.122 95.0504 25.5419 95.0376 24.9618C95.0376 24.8072 94.9353 24.6525 94.8841 24.4978C94.7434 24.5751 94.5644 24.6137 94.4748 24.7298C92.94 26.9856 90.6888 27.9007 88.1051 27.9523C85.2529 28.0039 82.6564 27.295 80.9041 24.7169C79.4972 22.6415 79.6123 18.362 82.5157 16.364C84.1657 15.2297 86.0075 14.6496 87.9516 14.4563C89.9853 14.25 92.0319 14.2242 94.0656 14.134C95.0121 14.0953 95.1143 13.9793 95.0376 13.0126C94.8074 10.4474 92.9272 9.37749 90.6633 9.17125C88.3865 8.97789 86.3145 9.58373 84.5111 11.0146C84.3704 11.1177 83.9994 11.1177 83.8843 11.0146C83.168 10.3443 82.4902 9.62241 81.7866 8.93922C81.4669 8.62986 81.7099 8.46228 81.9146 8.26893C83.2192 7.08302 84.7413 6.28382 86.4425 5.84556C89.1668 5.14948 91.904 5.02058 94.6284 5.89711C97.5573 6.851 99.1817 8.97789 99.4503 12.0071C99.6805 14.6368 99.6293 17.2793 99.6933 19.9218C99.6422 19.9476 99.6166 19.9476 99.591 19.9476ZM92.5563 17.6789C92.5563 17.6659 92.5563 17.6531 92.5563 17.6273C91.7121 17.6917 90.8551 17.7175 90.011 17.8206C88.7447 17.9882 87.4912 18.246 86.3913 18.9679C85.79 19.3545 85.3808 19.8702 85.2401 20.5921C84.9459 21.9842 85.7262 23.3505 87.261 23.7887C88.1563 24.0466 89.154 24.1111 90.0877 24.0596C91.9167 23.9564 93.4132 23.2088 94.2318 21.417C94.7179 20.3472 94.7179 19.2128 94.6539 18.0655C94.6411 17.9238 94.3853 17.6917 94.219 17.6789C93.669 17.6531 93.1062 17.6789 92.5563 17.6789Z" fill="#262626"/>
<path d="M102.304 16.6825C102.304 13.3696 102.304 10.0698 102.304 6.75696C102.304 5.90619 102.317 5.88042 103.161 5.88042C104.248 5.88042 105.335 5.90619 106.422 5.86753C106.998 5.85464 107.177 6.07377 107.151 6.62806C107.113 7.27256 107.126 7.91709 107.151 8.56159C107.164 8.79362 107.279 9.02565 107.343 9.25767C107.497 9.0901 107.676 8.9483 107.791 8.76783C108.801 7.14367 110.106 5.8933 112.037 5.51948C115.286 4.87497 118.88 5.6355 120.684 8.80651C121.528 10.276 121.784 11.9131 121.797 13.5759C121.835 17.9843 121.797 22.38 121.822 26.7884C121.822 27.3169 121.669 27.4974 121.131 27.4845C119.942 27.4459 118.74 27.4717 117.55 27.4717C116.668 27.4717 116.668 27.4717 116.668 26.6079C116.668 23.0245 116.693 19.428 116.642 15.8446C116.629 14.7619 116.463 13.6532 116.156 12.622C115.555 10.6369 113.866 9.67015 111.82 9.99241C109.172 10.4049 107.535 12.2611 107.497 14.981C107.446 18.8609 107.42 22.7538 107.42 26.6337C107.42 27.2654 107.266 27.5103 106.601 27.4845C105.412 27.4329 104.21 27.4459 103.02 27.4845C102.444 27.4974 102.291 27.2783 102.291 26.7368C102.317 23.3855 102.304 20.0339 102.304 16.6825Z" fill="#262626"/>
<path d="M77.5619 13.7486C77.5619 18.0669 77.5492 22.3722 77.5747 26.6905C77.5747 27.2962 77.434 27.5283 76.7945 27.5025C75.541 27.4509 74.2876 27.4767 73.0212 27.5025C72.5352 27.5155 72.3945 27.335 72.3945 26.871C72.4072 18.1313 72.4072 9.39169 72.3945 0.664972C72.3945 0.123591 72.5991 0.00757155 73.0723 0.0204641C74.3259 0.0462492 75.5921 0.0591285 76.8456 0.0204641C77.4085 0.00757155 77.5747 0.188041 77.5747 0.755207C77.5492 5.07345 77.5619 9.41747 77.5619 13.7486Z" fill="#262626"/>
</g>
<defs>
<clipPath id="clip0_16726_35949">
<rect width="147.436" height="28" fill="white"/>
</clipPath>
</defs>
</svg>
